<svg id="レイヤー_1" data-name="レイヤー 1" xmlns="http://www.w3.org/2000/svg" viewBox="0 0 711 711"><path d="M357,514.5H547.78a46.77,46.77,0,0,0,46.72-46.72V215.22a46.77,46.77,0,0,0-46.72-46.72H357v40H547.78a6.73,6.73,0,0,1,6.72,6.72V467.78a6.73,6.73,0,0,1-6.72,6.72H357Z"/><path d="M357,360.5v40c10.14,0,22.44-5.23,39.89-17,13.88-9.33,30.74-22.6,50.11-39.45,40-34.77,87.87-82.41,134.81-134.15l-29.62-26.88C508,231.72,462.81,276.91,424.86,310.31"/><path d="M357,514.5H166.22a46.77,46.77,0,0,1-46.72-46.72V215.22a46.77,46.77,0,0,1,46.72-46.72H357v40H166.22a6.73,6.73,0,0,0-6.72,6.72V467.78a6.73,6.73,0,0,0,6.72,6.72H357Z"/><path d="M357,360.5v40c-10.14,0-22.44-5.23-39.89-17-13.88-9.33-30.74-22.6-50.11-39.45-40-34.77-87.87-82.41-134.81-134.15l29.62-26.88c44.16,48.66,89.38,93.85,127.33,127.25"/></svg>