<?xml version="1.0" encoding="UTF-8"?><svg id="Layer_1" xmlns="http://www.w3.org/2000/svg" viewBox="0 0 138 132"><defs><style>.cls-1{fill:#fff;}.cls-2{fill:red;}</style></defs><path class="cls-2" d="M127.2,36.76c-1.4-5.23-5.51-9.34-10.74-10.74-9.47-2.54-47.46-2.54-47.46-2.54,0,0-37.99,0-47.46,2.54-5.23,1.4-9.34,5.51-10.74,10.74-2.54,9.47-2.54,29.24-2.54,29.24,0,0,0,19.77,2.54,29.24,1.4,5.23,5.51,9.34,10.74,10.74,9.47,2.54,47.46,2.54,47.46,2.54,0,0,37.99,0,47.46-2.54,5.23-1.4,9.34-5.51,10.74-10.74,2.54-9.47,2.54-29.24,2.54-29.24,0,0,0-19.77-2.54-29.24Z"/><polygon class="cls-1" points="56.85 84.22 88.41 66 56.85 47.78 56.85 84.22"/></svg>